<svg width="35" height="33" viewBox="0 0 35 33" fill="none" xmlns="http://www.w3.org/2000/svg">
    <g filter="url(#filter0_d_595_10910)">
        <path d="M30.6818 1.61454L29.786 4.95777L31.9559 5.53919L32.4102 3.8437L32.5051 3.79234L34.6749 4.37376L34.7314 4.46568L34.2131 6.39998L32.0433 5.81856L31.1986 8.97075L33.3685 9.55217L32.4599 12.9432L30.29 12.3617L30.7251 10.7379L28.4039 10.1159L27.5208 13.4114L25.4014 12.8435L26.31 9.45248L24.0897 8.85754L23.6418 10.5292L21.4214 9.93422L22.2916 6.68651C22.2381 6.68854 22.1949 6.6094 22.1783 6.60494L18.4945 5.61788L18.4188 5.67233C18.2073 6.19922 18.1361 6.77802 17.9879 7.32291C17.9729 7.37879 17.9679 7.38357 17.9068 7.4056L16.2668 6.96616L15.8444 8.54225L19.175 9.43466L18.2536 12.8734C18.3033 12.9057 18.3769 12.8553 18.3925 12.8595L20.5372 13.4341L20.0637 15.2013L22.0822 15.7421L21.5831 17.6048L23.8034 18.1997L21.0264 28.5637L18.8565 27.9823L18.3318 29.9405L16.2628 29.3861C16.2399 29.4173 16.2979 29.4569 16.2941 29.4713L15.8526 31.119L13.5313 30.497L13.0578 32.2642L5.0348 30.1144L5.4891 28.4189C5.49294 28.4046 5.56305 28.3993 5.55876 28.3608L3.23749 27.7388L3.69819 26.0194L1.78062 25.5056L2.29251 23.5952L0.274016 23.0543L3.06384 12.6426L5.03188 13.1699L5.51818 11.355L7.43575 11.8688L7.90926 10.1017L9.92776 10.6425L10.8044 7.37093C10.81 7.34992 10.6867 7.2488 10.7482 7.17673L13.776 7.98801L14.7102 4.5015L16.6278 5.01531L17.1013 3.24817L22.7403 4.81033L22.2796 6.5297L24.5504 7.13816L25.3822 4.03374L23.2123 3.45232L23.7498 1.44638L25.9197 2.0278L25.4462 3.79493L27.6665 4.38987L28.5624 1.04664L30.6818 1.61454ZM15.0551 10.4807L12.5825 9.81817L12.1986 11.251L14.6712 11.9135L15.0551 10.4807ZM10.6581 14.7798L8.38727 14.1713L7.90097 15.9862L10.1718 16.5947L10.6581 14.7798ZM7.87538 16.0818L5.78118 15.5206C5.64885 15.5563 5.72844 15.6165 5.72396 15.6333L4.64258 19.669L6.762 20.2369L7.87538 16.0818Z" fill="#0D100E"/>
    </g>
    <defs>
        <filter id="filter0_d_595_10910" x="0.273926" y="0.546631" width="34.4575" height="31.7175" filterUnits="userSpaceOnUse" color-interpolation-filters="sRGB">
            <feFlood flood-opacity="0" result="BackgroundImageFix"/>
            <feColorMatrix in="SourceAlpha" type="matrix" values="0 0 0 0 0 0 0 0 0 0 0 0 0 0 0 0 0 0 127 0" result="hardAlpha"/>
            <feOffset dy="-0.5"/>
            <feComposite in2="hardAlpha" operator="out"/>
            <feColorMatrix type="matrix" values="0 0 0 0 0.0268966 0 0 0 0 0.0331034 0 0 0 0 0.0289655 0 0 0 0.73 0"/>
            <feBlend mode="normal" in2="BackgroundImageFix" result="effect1_dropShadow_595_10910"/>
            <feBlend mode="normal" in="SourceGraphic" in2="effect1_dropShadow_595_10910" result="shape"/>
        </filter>
    </defs>
</svg>
